/* XPM */
static char *_f1327835274456bb12a181f535c817flJlYBMrUecL6hIkt[] = {
/* columns rows colors chars-per-pixel */
"64 64 172 2 ",
"   c #1E160D",
".  c #20160D",
"X  c #261D14",
"o  c #291F16",
"O  c #351D14",
"+  c #381C18",
"@  c #292115",
"#  c #2E2219",
"$  c #3F2317",
"%  c #312519",
"&  c #3D271A",
"*  c #362A1E",
"=  c #3E2A1B",
"-  c #372D23",
";  c #392F25",
":  c #3C3126",
">  c #3D3228",
",  c #412B1C",
"<  c #413526",
"1  c #42352A",
"2  c #46392C",
"3  c #4C3C2E",
"4  c #4E3E30",
"5  c #513F31",
"6  c #4C4334",
"7  c #4D443A",
"8  c #544334",
"9  c #594636",
"0  c #574834",
"q  c #5B4837",
"w  c #51453B",
"e  c #5A4738",
"r  c #564A3F",
"t  c #5C4A39",
"y  c #604B36",
"u  c #634D3B",
"i  c #694F3C",
"p  c #67503D",
"a  c #6B533E",
"s  c #574D41",
"d  c #594D41",
"f  c #675040",
"g  c #6C5241",
"h  c #6D5440",
"j  c #6E5541",
"k  c #6C5440",
"l  c #A6551D",
"z  c #AB561E",
"x  c #AD5D1E",
"c  c #AD5E22",
"v  c #AF6122",
"b  c #B36423",
"n  c #B86725",
"m  c #B66924",
"M  c #BA6B26",
"N  c #BA6D25",
"B  c #BB6F24",
"V  c #B96F26",
"C  c #BB6E26",
"Z  c #BA6D27",
"A  c #BC6E24",
"S  c #BD6D26",
"D  c #BA6C25",
"F  c #BB6C29",
"G  c #BC7024",
"H  c #BE7226",
"J  c #B27329",
"K  c #BE7428",
"L  c #BF7828",
"P  c #C17526",
"I  c #C37825",
"U  c #C47C27",
"Y  c #C37A27",
"T  c #C87E27",
"R  c #C17628",
"E  c #C57D28",
"W  c #C77D28",
"Q  c #C57D29",
"!  c #C97E29",
"~  c #B8802D",
"^  c #BE9C30",
"/  c #C78026",
"(  c #C98227",
")  c #C78028",
"_  c #C98228",
"`  c #CA832B",
"'  c #CC852B",
"]  c #CA832A",
"[  c #CE8A2A",
"{  c #D18B27",
"}  c #DB842D",
"|  c #D28D28",
" . c #D18D2A",
".. c #D08C29",
"X. c #D28D2B",
"o. c #C3952C",
"O. c #C49B2E",
"+. c #CB9E2E",
"@. c #DA9C21",
"#. c #D5922B",
"$. c #D5912C",
"%. c #D5912E",
"&. c #D5942C",
"*. c #D4922C",
"=. c #D8952C",
"-. c #D8952C",
";. c #D8982C",
":. c #DB9B2F",
">. c #DA9A2C",
",. c #DF9D2D",
"<. c #DD9F2E",
"1. c #DC9C2E",
"2. c #DB9C2D",
"3. c #DC8130",
"4. c #C09630",
"5. c #C29C31",
"6. c #DD9F30",
"7. c #E19F2F",
"8. c #C8A02F",
"9. c #DDA021",
"0. c #DFA22F",
"q. c #DEA22D",
"w. c #C3A133",
"e. c #CDA331",
"r. c #C5AD36",
"t. c #C6AD39",
"y. c #DFA331",
"u. c #CDB433",
"i. c #D2B535",
"p. c #D0B738",
"a. c #E0A32E",
"s. c #E1A52D",
"d. c #E1AA2C",
"f. c #E4AA2E",
"g. c #E4AD2F",
"h. c #E5AE2F",
"j. c #E3AB2E",
"k. c #E5B02E",
"l. c #E6B12F",
"z. c #E7B02F",
"x. c #E7B02F",
"c. c #EAB62F",
"v. c #E9B32F",
"b. c #EDBC2F",
"n. c #E3A430",
"m. c #E5AE30",
"M. c #E6AF30",
"N. c #E6AF31",
"B. c #E5AF33",
"V. c #E4AC31",
"C. c #E9AE30",
"Z. c #E4B131",
"A. c #E6B131",
"S. c #E8B331",
"D. c #E9B233",
"F. c #E9B430",
"G. c #E9B432",
"H. c #EAB532",
"J. c #E9B432",
"K. c #EDBC33",
"L. c #EEC037",
"P. c #EDC333",
"I. c #EFC83D",
"U. c #F1C433",
"Y. c #F2C836",
"T. c #F2C83E",
"R. c #F2CC38",
"E. c #EFCE63",
"W. c #F0CF64",
"Q. c #EFD066",
"!. c #F1D265",
"~. c #F4DC6C",
/* pixels */
": ; ; ; ; 1 2 2 4 4 5 8 5 8 8 8 3 : : ; ; : ; 6 8 8 8 8 8 8 8 5 5 5 8 8 8 5 > ; ; ; : : ; ; - 8 8 8 8 8 8 8 8 8 3 3 3 ; : ; ; ; ",
": ; 8 8 6 3 2 3 9 9 9 9 9 9 p i u 8 9 8 : : ; ; : : : > : 8 8 8 9 9 e 9 9 9 9 9 9 0 9 9 > ; ; - - ; 9 9 t a a u 8 8 5 3 3 2 ; ; ",
": : 5 8 8 3 1 2 9 9 9 t q 9 p p u 9 8 8 : ; ; : > > : : 1 8 8 8 e q 9 9 9 9 9 9 9 9 9 9 > ; ; : ; : 9 9 9 a a u 8 5 4 3 3 2 ; : ",
": : 8 8 8 3 1 2 9 9 9 q q e p p i 9 9 8 > : : > > > 1 1 1 8 8 8 q 0 9 9 8 9 9 9 9 9 9 9 1 : ; : ; ; 9 q q a a u 8 5 4 3 3 2 ; - ",
"> : 8 8 8 8 8 9 e q q t q q q e 8 ; ; ; > > : 8 9 9 9 9 9 u p p a a p 0 9 9 u a p q 9 9 8 8 8 : : : 1 : > > : : ; : : 4 3 3 ; ; ",
"> : 9 9 8 9 9 9 t t t t q q q e 9 : : > : 1 : 8 e 9 9 9 e p a a a a a q 9 e i a p q e 9 8 9 8 1 : : 1 1 1 1 1 1 : : 1 8 4 3 ; ; ",
"> ; 9 9 9 9 q 9 t t t t t t e 9 8 > > : > 1 1 8 9 9 9 9 q a a a a a a e 9 9 i a p q 9 9 8 9 9 > : : 1 2 1 1 1 1 1 : 1 5 4 3 ; ; ",
"> : 9 9 9 u i p a p p t t t 2 2 1 3 2 3 8 8 8 9 e 9 i p p a a a a a a a a a a a a f p p 9 9 8 > > 1 8 8 9 9 9 8 8 8 3 1 : > ; ; ",
"> : 9 9 9 p a a g a a u t t 1 : 1 3 3 3 9 9 9 e q 9 a a a g a a a a a g a a a a a a a a t 9 9 > : 1 9 0 e q q 9 9 9 8 > : : ; : ",
"> : 9 q 9 i a a a a a u t t 1 > < 3 3 3 9 9 9 9 q 9 a g g a a h a a a a a a a a a a a a e 9 9 1 1 1 9 e q q q e 9 9 8 > : : > : ",
"1 > 2 2 3 3 3 3 3 5 3 3 4 3 1 1 1 9 9 9 q e e   = = = = = = , = = = = = = = = = , a a a 3 2 2 8 8 8 i p a a a i e e t y t 9 3 3 ",
"> > 1 1 1 2 2 1 3 3 2 3 3 2 1 1 1 9 9 9 q e q X = = = , = , = , = = , = , , , , , a a a 3 1 1 9 9 9 a a a a a i q q t a a u 3 3 ",
"> : 1 1 1 1 1 1 3 3 1 3 3 2 1 1 1 q = = = , , T.0.0.a.S.F.F.c.F.F.F.S.l.B.:.:.:...= = , = , 1 9 q q p a a a a i q q t a a i 4 3 ",
"> : 8 8 8 9 9 9 p a p p p i e 9 8 2 , = = = = I.<.6.<.B.B.B.B.l.Z.B.B.B.f.=.&.*...= = = = = 8 p a a h a a a a a a a a a a u 8 4 ",
"> : 9 9 9 q q e a a a h a a t q 9 1 , = , = , L.<.:.:.B.B.l.g.l.g.g.g.B.d.%.%.*..., , , = & 8 a a a h a a a a a a a a a a u 4 3 ",
"> : e e 9 q e e a a h a a a y = = , &.%.%.S.l.I ' ` ` B M B B B B B B B B W U W ` f.f.C H C = = = h a h a a h a a a a a a u 4 3 ",
"3 3 q 9 9 i a a a k a a a a a , = , %.%.*.Z.Z.P ] ` ` B B C B B B B B B B W W W ! f.f.B G C = = = a a a a t t u a a p t q 9 3 3 ",
"6 3 9 e 9 a h a h k a a 1 - * O O + [ [ { Y.U.] %.X.' b b m b b b n b b n I P P ! K.K.b b b $ O O * * 1 a q e t a a a 9 9 8 3 3 ",
"4 3 e e 9 a h h a h a a o = , &.&.&.S.F.Z.P P m B B D ......[ ..*.%.X.X.*.*.....X.` ` P.Z.g.*.%.*.= = o a q 9 t a a i 9 9 8 3 3 ",
"4 3 i p u a a a t t t a X = = &.&.*.S.S.g.P H m B B B [ [ ..[ *.%.%.*.%.X...X.....` ( K.g.g.*...X.= = o a p i p a a i u u 9 1 : ",
"6 3 p i i a k a e 9 9 a o , = C.Z.C.H C m B M :.....[ [ [ [ ..S.v.l.*.X.X.....X.*.[ ..P K P g.V.f.= = o g a a a a a a p p t : ; ",
"6 4 i p i a a a 9 9 9 g @ , = g.C.Z.B B M B B :.[ [ ' ] ' [ [ S.l.Z.....X.....X.X.X.X.I P P g.f.d.= = o a a h a a a a a p t : : ",
"4 3 t t t a a a p i f a @ = = B.B.g.m n m B B :.[ [ ' ' ] X.[ Z.Z.B.X.X.X.X...X.%.X...K K P g.j.f.= = @ a a a a a a i 9 9 8 : : ",
"4 3 q q q p a a a a , = ^ &.*.W I P M n m X.[ X...[ [ ' [ Y.v.!.!.!.M M n X.X.X.X.....[ [ [ I I R :.&.O.= = a a a a i 9 8 3 ; : ",
"8 4 e e e p a a g a , , 5.&.*.W Q P n n m [ X.X. .[ [ [ [ Y.G.!.!.!.n n n X.X.X.X.X.X...X.[ I L P =.&.8.= = k a g a u 9 8 4 > : ",
"1 1 9 e e p a a a g , = w.&.%.I Q Q B M M ..[ X. .[ ' ' ' R.F.!.Q.E.b n b ....X...X.X...[ [ L P P &.-.e.= = 4 3 1 2 2 1 1 1 3 3 ",
"> : 9 e e i a a h g = , t.B.B.B M n ..X.[ X.*.X.X.[ X.W ` R.F.0.y.<.B G H I U U W W W %.[ [ H H B &.&.e.= = 3 2 : : : : > > 3 3 ",
"> : 9 0 e i a a h a , = r.B.B.m m n ..X...*.%.%.%.%.%.W U R.F.0.<.:.H G H Q Q W W W W *.X.X.H B C >.:.e.= = 3 2 : : : : > 1 3 3 ",
"> > 2 3 3 9 q q h a = = t.S.S.m m m %.X.*.F.F.~.!.!.!.!.E.@.Z.B.B.d.S.F.Z.Z.Z.Z.j.&.=.Q I Q B M B H.F.i., = 9 9 8 8 3 > > 1 3 4 ",
"> > < 1 1 8 9 9 h a = = r.A.Z.m D n %.X.*.F.F.~.!.!.!.!.W.9.g.V.d.f.S.F.S.Z.Z.Z.g.%.&.I I I D M B F.S.i.= , q t q e 8 1 1 1 3 4 ",
": > : : : 8 9 9 a h , = t.Z.Z.B M n X.%.*.F.F.~.!.!.!.!.E.9.B.d.d.d.Z.Z.A.Z.B.g.f...X.Q Q Y B B D v.S.u., = q t q q 8 1 1 1 3 3 ",
"8 8 1 > > 1 1 1 3 3 , = t.S.B.B M M X.*...P P H.7.0.<.B.V.V.j.d.f.d.Z.l.Z.) ` ) T b b ! R Y B B B F.F.i.= = a a a p u 9 8 3 < < ",
"8 8 > > > > > : 3 1 , = t.B.B.M M M X.%...P H g.<.:.:.f.V.V.B.d.d.d.Z.Z.Z.) U W I b b ` Y R B B B S.S.i.= = a a a a u 9 9 3 : : ",
"8 8 1 > > > 1 1 2 2 = , r.g.B.B M M X...X.H H a.:.:.&.d.d.d.d.d.d.d.g.g.V.W I I L b b ` Y Q B B B Z.Z.p.= = a a a a i 9 9 3 > : ",
"8 8 > > : 4 8 8 9 8 = = 5.=.&.B M M ......X.%.b H H H &.=.l.V.s.s.a.......b c x x P I W Q Q H C B S.Z.u.= = a a a a a u u 9 1 1 ",
"8 8 : > : 8 9 9 e 9 = = 5.%.%.B M n X.X.......b B C C &.&.g.s.s.a.0.[ ..[ b c c x P I W I W B B B Z.Z.i.= = a a a a a a a t 1 1 ",
"8 8 > > > 8 9 9 9 9 = = O.%.%.H B H X.X.X...X.' ..X...g.l.j.s.z z z c.F.F.W W W Q W W W W ` P H C ....o.= = h a a a a a a t 1 1 ",
"1 1 8 8 8 u p i e q = = o.%.%.B B B [ [ [ [ ..L W W ) s.s.V.s.A M n s.s.d.H H H H ` W ! W ` H H H &.*.+.= = a p t t y a p u 4 3 ",
"> : e 9 9 i a a e q , = 4.*.%.B F B [ [ ....X.I W W W s.s.s.s.C m m s.s.s.C H H H ` ` ) ` ` H H H &.&.+.= = a p e e t a p u 8 8 ",
"> : 9 9 9 p a a e e , , ~ H H [ [ ' R I P ....n.<.<.:.W Q b M M M b b b n X.%.*...] ` P K H V.d.V.M M P = = a p q e t a a u 8 8 ",
"> ; i i i a a a p i = = J H C ..' [ P P I X...V.<.<.:.W W b n B M n b M D %.X.%.X.] ` P P P d.s.s.M M K = = a a i i i p a u 5 4 ",
"> : a a a a a a a a , = J H P  .[ [ I R I ..[ y.<.:.:.! W b n B M n n m B *.%.%...] ` P L L d.s.q.M M H = = a a a a a p a u 8 8 ",
"> : a a a a a a a h g g % , , g.V.f.] ` ` ` ` b M n n b v l W W Q W B M B H H K P ' [ K.j.g.%.*.%.= = @ a a a a a a a a a u 8 4 ",
"3 3 p a p y t y a a a a o = = j.f.d.] ` ` ` ` b n D m b b l W W W U B B B H P P P ' [ K.j.f.*.*.*.& = # a u t u a a a y y 9 1 1 ",
"8 8 i i u q 9 q a a a a o = = B.j.j.' ' ] ` ) b B B M b b z W U W W B B C P P P R [ ..b.g.f.*.....& = # a t t t h a p t t 9 > : ",
"8 6 u u u q 0 e a a a a o = = B C B f.B.s.) ( W ` ` ` W W W W W W ! W W W ` ` ` ` g.d.%.*.*.b b b = = o p t t t a a p e t 8 : : ",
"3 3 t t t u u u a g a k X , = F M M d.d.s.` ` W ` ` ( Q U W ! W ! / W U W W ` ( ( f.f...| ..b b b = = o u u u u u u t 8 4 3 > : ",
": : 9 9 9 a a a a a a a a g a = , , n n m %.*.F.V.j.f.&.&.=.=.*.*.*.*.%.*.d.f.d.s.b b b b m , , , q e t t a a i q q 9 1 1 1 : 1 ",
"> : 9 9 9 p a a g h a h g h a , = , b b n ..X.F.f.d.d.&.&.&.&.*.%.*.*.*.*.d.d.f.s.b b b b b & = = q q t t a a u q e 8 1 1 1 1 1 ",
"> : 3 3 3 q t y a a a a a a u = , = b b n ....F.f.f.d.*.*.*.*...*.*.......d.s.q.q.b b b b b & = = 4 5 8 5 8 8 8 3 3 2 > 1 1 2 3 ",
": > 1 1 1 8 9 9 a a a a a a t 9 8 2 = = & = = } M n M d.d.V.s.0.0.q.0.2.0.m b b b = & & & & 9 1 1 2 1 2 2 2 1 1 : ; > 1 < 1 3 3 ",
"> > 1 : 1 8 9 9 a h a a a a t 9 8 1 , , = = = } M M B q.s.s.q.2.q.0.0.0.q.n M b b & = = & = 8 1 1 1 2 2 2 1 > : : : : 1 : 1 3 3 ",
"4 3 3 3 3 3 3 3 9 8 8 9 8 8 3 3 3 1 , , , , , 3.b b b 2.<.2.2.>.>.>.2.>.&.v v v c , = = = = 9 1 1 1 8 8 9 t q q q 9 9 8 3 3 1 2 ",
"8 4 8 5 4 2 1 2 3 2 3 3 2 2 2 3 2 1 1 2 9 9 9   = , = = = = & = = = , = = = = = = q q q 9 9 9 1 1 2 9 9 e a a a a a u 9 8 3 : : ",
"4 3 8 8 3 2 2 2 3 3 3 3 2 2 3 2 2 1 1 2 9 9 9 . , = = = = = = = & = = = = = = = = 9 9 9 9 8 9 2 2 2 9 q 9 a a a p a u 9 9 4 : > ",
"3 3 8 9 8 8 8 8 u t t 9 5 8 8 8 5 2 2 1 2 3 3 t u t a a a u u u a a a a a a u t t 9 9 9 3 2 3 8 8 8 u u u a a p t t t t q 8 ; ; ",
"4 3 9 9 9 9 9 9 a a i q 9 9 9 9 9 2 2 2 : > : 9 9 9 a a p t t t a a a a a a t 9 0 9 9 9 1 1 1 9 9 9 a a g a a i 9 9 9 y y 9 : > ",
"4 3 9 9 9 9 9 9 a a p q 9 9 9 9 9 3 3 2 > > : 9 e 9 a a p t q q a a a a a a q 9 0 9 9 9 1 1 1 9 9 9 p p a a a u 9 q 9 y y 9 : : ",
"2 2 9 9 9 t t t u u y e 9 9 u t t 9 9 8 3 3 3 6 8 5 9 9 9 e t q u u u u i u q 9 9 4 3 3 3 3 3 y t t a a a u u t 9 9 9 t t 8 : > ",
"> : 8 8 9 u i i 9 9 9 9 9 9 a p a p p u 9 8 9 1 > 1 1 1 2 9 q e q t q q e e 9 9 9 > > > 3 8 8 i i i a a p 9 9 9 9 9 9 9 9 4 > : ",
"> : 8 9 9 u u i 9 9 8 9 9 9 a p p a p u 8 9 9 1 1 1 1 1 1 9 e e e q e e e 9 8 9 9 1 > > 3 8 8 i i p p p u 9 9 8 9 9 9 8 8 4 > : ",
": : 3 4 3 8 8 9 4 3 4 5 8 8 9 9 9 9 9 9 3 8 8 3 2 2 1 1 1 8 8 8 8 8 8 3 3 3 3 3 3 1 : > 3 4 5 9 9 9 9 9 9 8 8 8 3 3 3 4 4 3 > > ",
"> : : > 1 1 1 1 1 : : 4 3 3 3 3 3 3 3 3 3 3 4 4 3 4 2 1 1 4 3 3 3 4 4 : ; : : : : : 1 : 3 3 3 3 3 3 3 3 3 3 4 3 1 1 1 > 1 2 2 1 ",
"7 7 7 7 7 7 w w w 7 7 d d d d r s d r r r r d r d d w w w d d r d t r 7 7 7 7 7 7 7 7 7 r d d r d d r d d d d d w 7 7 7 7 w w w "
};
