/* XPM */
static char *xpm_[] = {
/* columns rows colors chars-per-pixel */
"64 64 169 2 ",
"   c #1E1E1C",
".  c #231C1D",
"X  c #1C211C",
"o  c #21221E",
"O  c #34231C",
"+  c #3C241D",
"@  c #36281F",
"#  c #3F291E",
"$  c #211E20",
"%  c #242223",
"&  c #292025",
"*  c #352722",
"=  c #3C2621",
"-  c #362B22",
";  c #3B2A23",
":  c #352C2A",
">  c #3D2D2A",
",  c #3C3126",
"<  c #36312E",
"1  c #3D3229",
"2  c #3E3431",
"3  c #41241E",
"4  c #41281E",
"5  c #422621",
"6  c #422A25",
"7  c #452E2A",
"8  c #4A2F2A",
"9  c #502F2A",
"0  c #403426",
"q  c #43342B",
"w  c #4C342D",
"e  c #46392C",
"r  c #4C3C2E",
"t  c #51332D",
"y  c #513F2F",
"u  c #453431",
"i  c #4C3532",
"p  c #433C33",
"a  c #4D3D32",
"s  c #4F3538",
"d  c #453E3B",
"f  c #4B3E3C",
"g  c #523432",
"h  c #533C34",
"j  c #5D3E36",
"k  c #553E3A",
"l  c #5D3E3B",
"z  c #603F36",
"x  c #613E3A",
"c  c #3D423C",
"v  c #4D4133",
"b  c #44423D",
"n  c #4C423B",
"m  c #534334",
"M  c #524034",
"N  c #554335",
"B  c #554434",
"V  c #574636",
"C  c #574537",
"Z  c #534233",
"A  c #5C4136",
"S  c #5D4136",
"D  c #5D4135",
"F  c #5B4537",
"G  c #584737",
"H  c #594736",
"J  c #5C4136",
"K  c #5B4836",
"L  c #5E4A37",
"P  c #5B4836",
"I  c #56423B",
"U  c #57423D",
"Y  c #57423F",
"T  c #57463F",
"R  c #54423C",
"E  c #5B4039",
"W  c #5A4238",
"Q  c #5B4339",
"!  c #59403B",
"~  c #5B423B",
"^  c #5D4038",
"/  c #5C4138",
"(  c #5E4038",
")  c #5D403A",
"_  c #5C413A",
"`  c #5D423B",
"'  c #5E413B",
"]  c #5A4739",
"[  c #58453A",
"{  c #5F443B",
"}  c #5A423E",
"|  c #5A423D",
" . c #58453F",
".. c #5C413A",
"X. c #564B3E",
"o. c #594838",
"O. c #5B4A3A",
"+. c #614037",
"@. c #604B36",
"#. c #61433B",
"$. c #61413C",
"%. c #604B38",
"&. c #654F3D",
"*. c #644E3B",
"=. c #684E3C",
"-. c #65503D",
";. c #66503D",
":. c #6A523E",
">. c #443F43",
",. c #483F40",
"<. c #593F41",
"1. c #3F4440",
"2. c #444342",
"3. c #4D4242",
"4. c #574440",
"5. c #554441",
"6. c #5A4240",
"7. c #594441",
"8. c #594743",
"9. c #5B4341",
"0. c #574D41",
"q. c #5A4C41",
"w. c #624740",
"e. c #644540",
"r. c #624541",
"t. c #614A43",
"y. c #655343",
"u. c #695240",
"i. c #6E5945",
"p. c #685648",
"a. c #715743",
"s. c #725945",
"d. c #665E5E",
"f. c #6A5F5C",
"g. c #5E635C",
"h. c #62625C",
"j. c #6C615C",
"k. c #766657",
"l. c #655F62",
"z. c #695F60",
"x. c #626063",
"c. c #766C64",
"v. c #7E6D66",
"b. c #7E6D66",
"n. c #7F6E69",
"m. c #7E716A",
"M. c #7D736C",
"N. c #7C7571",
"B. c #806E6A",
"V. c #867563",
"C. c #81736B",
"Z. c #80736D",
"A. c #80716C",
"S. c #83766E",
"D. c #84756E",
"F. c #81736D",
"G. c #827770",
"H. c #887571",
"J. c #B1A396",
"K. c #B2A499",
"L. c #B7ADA4",
"P. c #BAAFA9",
"I. c #BCB3AA",
"U. c #C1B5AB",
"Y. c #D5D0CA",
"T. c #D9D2CC",
"R. c #DED8D1",
"E. c #E0D7D0",
"W. c #E0D9D2",
/* pixels */
", , - , - e e e v M h h a M B Z r q , - , , ; M v B M M M M M M v Z M v y h 1 , - > , ; - , - M M m M M h M M v r r e # , , , , ",
", - m v v r - u 1 q > q q q w w w q q w > > > 7 q > q 6 > 7 6 , 6 7 7 > 7 1 7 0 q > q q q > > q q 6 q q > q 1 u > M Z r r 0 , - ",
", , M M a r u u u 7 6 6 6 6 7 w 8 8 8 8 q 8 8 8 8 8 w 8 8 8 8 q w 8 8 8 8 8 8 8 w 8 8 8 8 7 8 8 8 6 6 6 6 7 u u u M v r v 1 - , ",
", , M M v a u q w 7 7 6 6 5 8 q 8 8 8 w 7 8 w 8 8 8 8 8 w 8 8 8 w 7 w 8 7 8 w 8 8 7 8 w 8 w w 8 8 6 6 6 7 7 q w 2 M v r v v - - ",
", - m m V M h k k 6 3 3 6 9 t { l j W { { l k { { W l { k { { l l { l { { { l l { W l l k { k { h 9 3 3 6 6 h k a , 0 r r r # - ",
"1 , m C Z G T } 7.5 + + + 6 h #.l j j l j S $.j j l S j j j j j j W j j k z S j j l j { j S z $.h 6 O + 3 3 } } 8.0 q Z v e , , ",
"1 , m V V P T U } ; @ ; ; ; W { k { l $.j S S S S S S S S S S { W W { S j { { j { j $.+.l { { k W ; ; @ ; 6 } U  .q 0 v v v - , ",
"1 , V V V *.8.U U ; ; = @ = U W { { S { { S S S S W W S S l l S l W S k W W j W j S { +.k { { { } = + ; @ ; U U T m v , , , - - ",
"1 , V V o.;.8.7.8.O - ; - ; 8.[ k l #.h x z S S S S { j { S S l W D G W F S { S S { $.h e.W k } T ; - - - O 4.4.4.V M , , - , , ",
"1 , H H [ u.i i i F.m.F.M.B.q i i i w h w g w t w w w w w t w t w w w w w w w w t t t g 8 w w i q n.F.F.m.G.i i u o.M , , , , , ",
"q 1 e r r r i i i b.F.F.M.F.i i 8 8 g 8 g t i t w w w w w w w w w r w w w w w w t w t 9 g 8 w i a n.F.M.M.b.g s u o.L *.P V e e ",
"1 1 0 1 q e i i i b.C.F.F.N.i i i u g w g w w w w w i w w t w w w w w w w w w t w t t 9 s w w i u N.F.F.F.b.g i i [ P :.:.*.r v ",
"0 , 0 0 q e q i i b.F.M.F.F.i i w 8 g 9 g i i w w w g w i t i i i w w i w w w t t t g t g i 8 i i B.F.F.C.b.i i i @.%.:.:.;.a r ",
"1 1 M M M V a i i H.B.N.F.n.u u w w u h w t t w i w i w w w t t i w w w w w w w t w 9 h 8 w i u u n.F.F.B.D.i g 7 :.:.:.u.;.M v ",
", , P G G P 9.9.9.O ; = * ; 4.l l k e.h $.} { k { k { l l } l { l } W W G W W S F S $.h e.l l l U ; = - = O 9.9.9.s.:.:.:.*.y r ",
"1 , G P P L 9.l <.5 - = = = k W } } l $.l l l S l { k { { l l l l S { j W { j W S S S $.l x 9.} k = - = > 5 <.<.7.V.:.:.:.*.v r ",
"r r P G V &.q.r.l = = = ; = { { l l z { j j j S j { j j { l l j S j S S S S D S S z z $.+.l l W } = ; + * = <.<.9.W.;.P P G r r ",
"v r V P P ;.t.<.7.= ; = ; 5 } } l { S S l { l S j { k +.z l { $.S D +.S S S D S j D z z $.l l { k ; = ; = = <.l 9.E.:.F P N r r ",
"v r G P P u.t.l l = ; + = + { j j j j z z D S S S S S +.S z z z z z D S S D S D +.D j z z j S j j + + ; 5 = r.<.9.W.t.[ F Z r r ",
"r v -.-.*.;.r.l } + 5 ; ; 4 S { $.$.+.+.+.+.S +.{ S +.+.+.$.z z z +.+.S +.S S S D +.z +.+.$.$.$.{ 6 ; ; 5 5 <.x <.W.u.&.=.G 0 0 ",
"M r ;.=.&.:.q.<.<.5 = + + + j j j D S D D D D D j W j h l z z j z z j D W j D S j j j j z l l l j = = = = = <.<.7.W.:.;.;.P , ; ",
"v M &.;.*.u.r.x <.5 = 3 + + W j S { +.+.D S W D W j S { { z l { x $.+.S S j S S S S j { z } l } W = = = = 5 l l 7.W.:.;.;.L , , ",
"y r L P P u.9.9.l 5 # 5 # 3 j { { j +.S W S D G { { { { l z z $.z { { S S { W W j l $.{ } l l l } = ; = 5 5 <.l 7.R.;.V V v , , ",
"y v P P [ u.} l l > = 6 5 ; k { j W W z h j N W S k j k W l l l l j l W j l W j { j { k l k l } } ; ; = = 6 <.l k W.*.V M a - , ",
"v y P P [ ;.W s g 5 = = + + i w w w w w w w w w w w w i w g w t i t t w w i w w w w g w g i i k <.* & = 5 5 s g s E.=.B B r , , ",
"q e V P o.;.h g g 5 = > ; @ a w w w q i q i r u e p w i r w w i i t i w w w i t i w i w u i i f ,.> 5 > = 5 g g s T.q q 0 e r r ",
"1 , V o.P =.g g g = = 6 ; + i u w q w u u i i d p q u w w w w t t t i w w w w w i g i w u i i f <.* = > = = g g w Y.> , , 0 r r ",
"1 , G P [ &.k g g + = > ; @ i i d f 2.3.f >.>.2.b d a d w e w w w w w w w w t g 9 g 8 u f.d.h.b >.l.z.l.5 = g g s P., 0 , 0 r v ",
"1 1 e w e V k g g 5 = = = = g s d d 3.>.2.2.2.2.2.d i i i w t t t t w w r w t 9 g g g f h.g.g.1.>.x.l.l.= = s g g L.r q 1 0 v r ",
"1 1 0 q 0 M k l <.5 = + + 5 <.<.f f ,.$ $ $ $ % 2 n 9.9.l { z x S k { k k { z x x x l k j.h.g.1.c x.d.l.= = <.l k I.Z 0 0 e y v ",
", 0 0 0 0 Z } <.l 5 5 5 5 5 <.<.f k ,.$ & % % $ 2.2.9.l l x x x { { W } } $.x x $.x 9.R j.g.g.2.>.l.d.d.; 5 l x } I.B 0 1 q r r ",
"v v 0 0 1 q k l l 6 = 5 5 5 x <.f ,.f . & % % % 2.3.9.} x x x x $.k } W { } x x x z } 5.j.g.l.c c l.d.d.; 5 <.<.} I.*.B B y 0 0 ",
"m M 0 1 1 1 k <.<.5 = + = 5 l 4.f d b   X % % X b n } l x x z x j j j j W j j l l l } U j.h.g.2.c x.d.d.> = <.<.<.U.=.G N r , , ",
"m M q , 1 1 k l l = = + + 5 l 4.b n b o X X X X 2 b 4. .$.z z z l { { S W { $.l $.z } I f.d.d.b 2.l.d.d.= = <.l <.U.&.W W y 1 , ",
"m M q , , y 8.l l = = ; ; 5 k k n f b b b 2.2.b 2.b k n l l j j S { j S S S j S l j } I f.f.d.b >.l.l.d.* ; <.<.<.U.u.=.*.K 0 q ",
"m Z 0 > 0 Z 9.} <.= ; = = = }  .n n d n n b d n b n k W l k { l l S S D S S +.j { S k k j.j.f.n 2.l.d.d.= ; $.r.9.K.=.u.:.L q 1 ",
"m M , 1 , M 8.} <.= = = = ; } U n n d n f f d b b b C C l } { { j S D D S j +.S j { k k j.f.f.,.d l.l.d.* = $.<.7.K.:.:.:.L e 1 ",
"0 q B M M =.8.} $.; = ; * + l } U U 4.7.9.<.<.<.V R l } l { l l S S D +.z z S S S S { 8.l ,.k ,.>.: : : * = <.<.7.k.@.:.:.@.r v ",
", , P G V &.9.l 9.O - * + q k r.l 7.} l x l <.l W } l l x l W W { j D D +.D j S W W } h 9.k k ,.3.: : : - * <.<.9.p.L ;.:.@.Z v ",
", , B G [ u.7 i i H.M.M.F.c.i i w 8 i g g 9 g t i w t i w i w w w t t t 9 t t w w w w h i u i i u M.N.N.M.H.s i u y.@.:.=.*.Z v ",
"1 , ;.;.&.:.i i i B.F.M.M.M.q i u w t t t g 9 g w u w t g w a w t w t t t 9 t e r 9 r 8 g g w w i M.N.M.M.n.s s i p.;.:.:.=.r v ",
", , :.:.;.u.i i i b.C.M.M.M.w i q w i w 9 g 9 g w w g w g q w i w t t t 9 t r 9 9 e t 0 g w w s i N.N.N.G.n.i s i s.;.:.:.=.Z v ",
", , ;.:.u.;.i s i b.M.M.M.G.e a i q a 8 t t t t w e w i i a w q w w t t t t t e e 9 t 9 g 9 g g i N.M.N.M.n.s s i s.u.:.;.-.Z r ",
"e v -.;.&.*.u p i F.M.G.M.c.a w w q r w 9 t t w r w i i w w w i w w t t t t w w 0 r 0 Z 9 g 9 g w M.M.M.M.H.i i u i.t.*.@.K 0 q ",
"M v &.&.*.V 8.8.7.O - * = 7 k } { } I j S S S W I W z x $.x l 9.W W { l l j W W K H o.h +.x z $.U - - - - O 5.4.8.a.;.P @.V 1 , ",
"M h &.*.*.P 4.U 4.; = 6 ; 5 x l l k S { S S S S W S z z x x z x { } S l z j W W S H W +.z $.x $.l * - - + > 4.4.4.a.;.P L V , , ",
"r e P *.L *.8.U <.; = 5 5 = l l { j S { z D j S k +.x x x x z x k { l l l { j W G W W $.x x x $.k ; * @ * ; U 4.5.p.@.M h r , , ",
"1 , G G G ;.8.7.7.= 5 5 5 5 j { j { +.S z j z +.z z z x x x z z z +.z z $.S j S D S j j x x +.$.j 5 3 + 5 = 8.4.5.*.B 1 q 0 0 0 ",
"1 0 B H B ;.O.U U 5 5 3 3 3 D h W S j W j D +.S z S S S S j S j z S j j j j j { S S j j j j j W j 3 3 3 5 3 } } T O.B e 0 0 e 1 ",
"1 1 e r r P 0.U k + 5 3 4 # F F W W [ { { S [ W S W W { W W { W { [ S { W { W W { } [ W W } W } W 5 3 # 5 3 k k 4.C e 1 1 q e e ",
", , q 0 q M U U k 5 5 # 4 4 { G N W [ W [ { W { W W W { W { W { { W W G { W { W W W { } } W W W [ 4 ; 3 5 3 k k 5.e 1 1 0 e v r ",
"1 1 q 1 q v R I U 5 3 + + + W W I j W W W k W h k W k j N j W k j j j W h W N j h W W I W I I } } 3 + + 3 5 W I R p , 1 0 0 r r ",
"v r r r r r R U } 5 3 3 3 5 $.$.$.{ l $.x $.$.{ $.$.$.r.x $.x l { z x $.$.$.$.$.$.$.9.l l 9.x x } 5 3 3 3 5 W } R y.D v r e e e ",
"v v y y Z q a I I 5 3 5 5 5 x z l l l l l l l $.x x x l l x x l l j z l $.S S z z z l l z { l l z 5 5 5 3 3 I I v a.=.W B v ; , ",
"y v Z Z r e r i a 5 + 3 + + g i t t t y t w t t w w t t g w t t t t g w w t t t t w g g t i g w g + + 3 3 3 h i d i.&.G B y , , ",
"r r B B Z Z a a a = 3 3 3 + t w r t g g t t w t t t w t w t t t t t w t t t w w t w t g g g t i g + + 3 3 3 a a a y.P P P B ; , ",
"h r V [ H H u q w = = 5 ; + w w w w w w w w w w w w w w w t t t w w w w w w t w w w w w g w w w w + 6 6 + + q w q o.G @.@.V , , ",
"v r G G N H f u w ; + + + 6 w e w i w w t r w w w w r w w w w w t w t w w w t w a w w w w a i i w > + + = ; i i i O.G @.*.V , , ",
"e e G G V L p u u > ; = # 6 q e w w w i w w w w w w w w w w w w w w w w 8 w w r w w w w w w w i q > = @ = > u q p O.o.L L B , , ",
", , N N Z *.2 2 > > 7 7 6 6 6 8 7 7 7 7 w 6 q 8 7 w 7 8 6 8 7 7 w 7 6 q q 8 8 q 8 7 8 7 7 7 7 7 7 6 7 6 7 1 1 1 2 O.V B B M , , ",
", , M m m @.1 u 2 > 7 7 6 7 7 7 7 7 7 8 8 7 7 7 7 8 7 8 6 w 7 7 8 6 w 6 8 7 8 7 q 6 w 7 7 7 7 7 7 7 5 7 q 7 1 2 2 O.B B Z r , , ",
", , e a v v < 2 2 2 > q q u 1 7 > 7 q 7 > 7 7 q 7 q q 7 q q w q 7 q 7 q 6 q q 7 q q 7 q 7 2 u u 7 u u u 1 1 2 2 < r r v r r 1 1 ",
"1 , 1 1 1 e 0 1 , 0 , a M r a r r r r e r r v v r v q q 2 a r r r r v 1 1 q q 1 1 e e e a M m v v R a h m v v v e e 1 1 q e e q ",
"X.v n n n R V R R n R 0.0.q.0.X.0.0.0.X.0.X.0.O.X.q.n V V q.q.q.q.O.O.n n n n n n n n R 8.q.q.O.0.0.O.0.q.q.O.X.n n V n n n n X."
};
