/* XPM */
static char *_618481fccf04a16f253892ff0a8db7b4pzFeg9iTZNiBCls[] = {
/* columns rows colors chars-per-pixel */
"64 64 131 2 ",
"   c #372E24",
".  c #392F25",
"X  c #3D3226",
"o  c #3D3228",
"O  c #403427",
"+  c #42362A",
"@  c #48372D",
"#  c #46392C",
"$  c #4B3C2E",
"%  c #4E3E30",
"&  c #513F31",
"*  c #4C4334",
"=  c #4D443A",
"-  c #544334",
";  c #5C4736",
":  c #594636",
">  c #574835",
",  c #5A4834",
"<  c #5B4935",
"1  c #594836",
"2  c #5B4837",
"3  c #5A4937",
"4  c #5F4A35",
"5  c #5D4837",
"6  c #5C4A36",
"7  c #5D4B37",
"8  c #5F4A37",
"9  c #5B4837",
"0  c #51453B",
"q  c #584638",
"w  c #594638",
"e  c #5A4738",
"r  c #5A4739",
"t  c #5C4638",
"y  c #5D4739",
"u  c #5A4738",
"i  c #564A3F",
"p  c #594838",
"a  c #584839",
"s  c #5B4839",
"d  c #5A4939",
"f  c #5B4A38",
"g  c #5C4938",
"h  c #5E4938",
"j  c #5D4A39",
"k  c #5C4B39",
"l  c #5F4A39",
"z  c #5C493A",
"x  c #5F493B",
"c  c #5D4A3B",
"v  c #5E4B3A",
"b  c #5F4C3B",
"n  c #5C4A39",
"m  c #614C37",
"M  c #614A38",
"N  c #604B38",
"B  c #604B3A",
"V  c #614C39",
"C  c #624D38",
"Z  c #634E39",
"A  c #634C3A",
"S  c #624D3A",
"D  c #634E3B",
"F  c #644E39",
"G  c #644D3B",
"H  c #654F3A",
"J  c #634C3C",
"K  c #654E3C",
"L  c #644F3C",
"P  c #664F3D",
"I  c #664F3F",
"U  c #634D3B",
"Y  c #684F3B",
"T  c #684E3D",
"R  c #694F3E",
"E  c #694F3C",
"W  c #655139",
"Q  c #65503B",
"!  c #67513A",
"~  c #66503B",
"^  c #65503D",
"/  c #66513C",
"(  c #67513C",
")  c #67503E",
"_  c #66513E",
"`  c #67523F",
"'  c #67503D",
"]  c #6A513B",
"[  c #68523B",
"{  c #69503C",
"}  c #6B503D",
"|  c #6A513D",
" . c #69533C",
".. c #68523D",
"X. c #6B523C",
"o. c #68513F",
"O. c #6A503F",
"+. c #68533E",
"@. c #69533E",
"#. c #6B523E",
"$. c #6C533D",
"%. c #6C513E",
"&. c #6D523F",
"*. c #6C533F",
"=. c #6E533E",
"-. c #6A543D",
";. c #6B553D",
":. c #69543F",
">. c #6A543F",
",. c #6D553D",
"<. c #6D543E",
"1. c #6F543F",
"2. c #6E553F",
"3. c #6C563F",
"4. c #6E563E",
"5. c #6B533E",
"6. c #574D41",
"7. c #594D41",
"8. c #675040",
"9. c #685141",
"0. c #695240",
"q. c #6A5341",
"w. c #6C5241",
"e. c #6E5340",
"r. c #6D5342",
"t. c #6A5540",
"y. c #6B5540",
"u. c #6B5442",
"i. c #6D5440",
"p. c #6E5541",
"a. c #6C5440",
/* pixels */
"X . . . . + # # % % & - & - - - $ X X . . X . * - - - - - - - & & & - - - & o . . . X X .     - - - - & - - - - $ $ $ . X . . . ",
"X . - - * $ # $ : : : : : : ^ P S - : - X X . . X X X o X - - - : : p : : : : - : > : : o . .     . : : j #.#.S - - & $ $ # . . ",
"X X & - - $ + # : : : y 2 : ^ ~ S : - - X . . X o o X X + - - - e 2 : : : : : : : : : : o . . X . X : : : #.#.S - & % $ $ # . X ",
"X X - - - $ + # : : : 2 2 e ^ ^ P : : - o X X o o o + + + - - - 2 > : : - : : : : : : : + X . X . . : 2 p #.%.S - & % $ $ # .   ",
"o X - - - - - : e 2 2 y 2 2 2 e - . . . o o X - : : : : : H ^ ^ #.#.^ > : : H #.^ 2 : : - - - X X X + X o o X X . X X % $ $ . . ",
"o X : : - : : : j j j j 2 2 2 e : X X o X + X - e : : : : ^ #.#.%.#.#.2 : e P #.^ 2 e : - : - + X X + + + + + + X X + - % $ . . ",
"o . : : : : 2 : j j j j j j p : - o o X o + + - : : : : ; #.#.%.%.#.#.e : : P #.^ 2 : : - : : + X X + # + + + + + X + & % $ . . ",
"o X : : : S P ~ #.^ ^ b j j # # + $ # $ - - - : e : Y ^ ^ #.%.%.#.%.#.#.#.#.#.#.#.8.~ ~ : : - o o + - - : : : - - - $ + X o . . ",
"o X : : : ^ #.%.q.#.#.S j j + X + $ $ $ > e : e 2 : #.>.#.%.%.%.%.#.%.%.%.%.<.<.#.#.#.#.p : : X X + : : e 2 2 : : : - o X X . X ",
"o X : 2 : P #.#.%.%.#.S j j + o + $ $ $ : e : 7 2 : #.y.%.%.%.%.#.#.#.%.<.%.%.<.#.%.%.#.p : : X + + e e 2 2 2 e : : - o X X o X ",
"+ o # # $ $ $ $ & & $ $ % $ + + + : : : : e p P ^ ^ %.%.%.%.>.#.S S N >.i.w.%.%.%.%.#.%.$ # # - - - P ~ #.#.#.^ e e j N 7 : $ $ ",
"o o + + + # # + $ $ # $ $ # + + + > : : 2 2 2 #.#.>.i.<.%.<.<.#.j j 2 %.y.%.<.<.w.%.%.%.$ + + : : : #.%.%.>.#.P 2 2 j #.#.S $ $ ",
"o X + + + + + + $ $ # $ # # + + # 2 j 2 7 j p q.<.%.<.i.<.i.y.>.j j 2 %.>.i.<.%.w.%.<.%.$ + + : 2 2 #.%.%.%.#.^ 2 2 j >.#.P % $ ",
"o X - - - : : : P #.^ ^ ~ H e : - # # $ #.#.#.i.%.<.i.i.i.<.%.w.#.#.#.i.i.%.i.%.#.# + + % - - H >.#.%.>.%.%.w.#.#.^ #.#.>.H - % ",
"o X : : : 2 2 p >.<.%.i.%.y.7 2 : + + $ >.i.%.i.w.%.<.i.<.i.%.%.<.%.<.i.i.i.%.%.#.+ + X & : - #.%.%.i.%.<.<.<.%.#.#.#.#.#.H % $ ",
"o X p p : 2 p p %.%.%.%.%.%.N j : + + $ #.i.<.<.i.%.<.%.>.y.%.%.i.<.<.<.<.<.%.#.#.+ + + & : : #.w.>.>.%.<.%.i.%.%.>.#.#.#.S % $ ",
"$ $ 2 : : P #.#.%.y.%.>.%.%.#.#.#.P P N $ $ $ $ $ $ $ $ $ j j 2 j j j $ $ $ $ % $ - - & S P P #.%.%.<.w.#.j j S #.#.] j 2 : $ $ ",
"* $ : p : #.i.>.i.y.%.>.<.%.<.%.y.%.%.S # + + o + + + + # : : : : : 2 + + + + + + : : - P %.#.<.i.<.<.<.q.: e j #.#.#.: : - $ $ ",
"% $ p p : #.i.i.<.i.%.%.y.%.<.%.%.>.i.P # + + o + o + + + : : : e : : # + + # + + : : - P #.#.i.<.<.%.%.#.2 : j #.%.P : : - $ $ ",
"% $ P ^ S >.%.%.j j j #.>.>.i.>.%.i.i.#.: - - + o o - - : ^ ^ #.^ ^ P : : - - - - $ $ # : j j >.>.>.i.i.#.^ ^ ^ %.>.T S S : + X ",
"- $ ~ T P >.y.%.p : : #.<.>.w.i.%.w.i.#.j 2 p + X X : e 2 >.<.i.i.%.#.2 2 7 2 p : # + + - : : #.#.#.>.<.i.#.>.<.%.%.>.^ ^ j X . ",
"- % P ^ P >.%.%.: : : q.>.%.y.#.>.%.%.^ 2 e 2 # X o : : p >.i.<.i.%.#.2 : p 2 : : # + + - : : #.#.#.>.i.%.%.>.<.#.>.#.#.] j X X ",
"% $ j j j #.>.>.^ ^ ^ %.>.i.<.%.#.j j : $ $ % - - % P ^ ] y.i.<.i.>.%.^ 8.^ ^ ^ P - - - # # + j j j %.i.%.%.%.%.>.#.P : : - X X ",
"% $ 2 2 2 ^ >.#.q.%.%.%.y.>.i.y.P e : : $ # # : e : #.y.>.i.q.>.%.>.>.>.<.<.%.%.>.2 : : # o X : : : >.y.%.%.%.%.#.#.P : - $ . X ",
"- % p p e ^ >.>.%.>.%.>.>.y.<.i.^ 2 e : $ # # : : : #.>.%.i.<.<.<.<.<.w.y.i.>.>.%.2 : : + o X : > : %.>.%.%.>.%.q.#.H : - % o X ",
"+ + : p p ^ >.#.%.>.%.%.%.>.N j : $ $ $ : - : P #.#.>.%.#.7 j N %.<.i.y.i.y.%.%.%.#.#.#.# o o # # # $ $ & & - $ + # # + + + $ $ ",
"o X : p p P >.>.i.i.i.y.%.%.j j : # + # : e > q.y.<.<.y.#.j 2 j %.i.i.<.i.<.%.#.%.<.<.%.$ X X O + + + # $ $ $ # X X X X o o $ $ ",
"o X : > p P >.%.w.>.%.%.%.>.b p : + # # : e p #.i.%.i.i.^ p 2 j %.i.w.<.<.i.%.%.%.<.%.%.# X X + O + + # $ $ $ # X X X X o + $ $ ",
"o o # $ $ : 2 2 i.%.i.S j j % % $ : : : P ^ P <.i.i.<.%.>.^ P P >.<.<.i.i.>.S j j >.%.%.# O X - - - N S S : : : - - $ o o + $ % ",
"o o O + + - : : i.%.%.j 7 : # + # j 2 j q.>.%.<.<.<.i.i.<.i.%.%.<.<.y.<.y.i.j : e #.%.#.# X X : : 2 >.i.#.j 2 j 2 e - + + + $ % ",
"X o X X X - : : <.i.w.j p e + + # p 2 j #.>.%.>.<.<.i.%.<.%.%.%.i.<.i.<.<.i.j : : #.%.<.# o X : : : >.>.#.j p 2 2 2 - + + + $ $ ",
"- - + o o + + + $ $ $ $ $ # + + # 2 2 : p j j #.i.%.i.i.%.i.%.#.j j j %.i.<.#.#.~ $ $ # : j 2 #.#.#.%.y.>.#.#.#.#.^ H : - $ O + ",
"- - o o o o + X # # # + + # + + # 2 : : e ; : >.w.%.<.i.<.<.>.#.j e 2 %.i.w.<.%.] + X X e S S %.i.%.<.i.#.%.>.%.>.#.H : : $ X X ",
"- - + o o + + + $ # # # # # + + # : : : e : : #.i.%.i.<.y.i.>.>.j 2 e %.i.i.w.#.#.+ o X e S S >.%.i.<.>.w.i.%.%.%.#.P : - $ o o ",
"- - o o X & - - - - - - - - - - & # # $ : : : #.y.<.S j j %.%.%.^ ^ ^ i.i.y.b j 2 + X X - : e #.i.>.j b N %.<.%.%.%.#.H S 2 + + ",
"- - X o X - : : p : : 2 e : 2 e : + + # : : e #.i.<.p e p #.%.%.%.%.%.i.<.%.j : : + X o & : : >.%.>.p : 2 >.w.%.%.>.%.>.#.7 + + ",
"- - o o o - : : p : : j 2 e 2 y : + + # : > : #.i.#.j : 2 >.%.<.%.%.>.<.i.<.j : : + X X - : : >.#.>.p p 2 #.%.#.>.#.>.#.#.j + + ",
"+ + - - - S ^ P e 2 e ^ #.#.q.#.H : : - # # # : p : P ^ #.i.%.%.%.%.#.j j j $ @ # - - - S ^ P %.%.%.#.^ ^ %.w.^ j j N #.] S % $ ",
"o X p : : P >.#.e 2 2 ] %.<.%.%.^ 2 p - + + o : : : #.>.%.i.%.<.i.%.#.2 : p # + + : : : ^ >.>.i.<.%.y.%.%.%.>.^ e e j #.] S - - ",
"o X : : : ^ #.#.p p e q.%.%.<.y.^ p e : + + + - e : #.>.%.w.<.<.i.%.#.e e e $ + + : : : ~ %.%.%.%.%.i.w.%.i.<.^ 2 e j #.#.S - - ",
"o . P P P #.%.#.^ P P #.%.>.S j j 2 2 2 S S P % # + $ $ % - - - & & $ $ $ $ # + + : : : ^ %.>.N j j #.%.%.%.>.^ P P P ] #.S & % ",
"o X #.#.#.>.>.#.>.%.%.i.%.>.j 2 p 2 p j >.y.i.$ + + + # # % % $ $ # # $ $ $ # + + : : : ~ %.#.j y j #.%.%.%.<.#.%.#.#.] #.S - - ",
"o X #.#.#.>.>.#.%.%.%.y.i.%.j p : e e p >.%.<.$ + o + + # % $ $ $ # # # # $ # + + : : : P >.#.2 2 j >.%.%.%.%.#.#.#.#.#.#.S - % ",
"$ $ ^ #.^ N j N %.%.%.i.i.>.#.^ ^ ^ ^ P b j j # + + - - - : : - - - - S H S : : - $ $ $ p j j ^ ^ P y.%.#.S m S #.#.#.N N : + + ",
"- - P P S 2 : 2 %.#.>.%.%.%.i.%.>.>.%.^ e e 2 # + X : : : - : : : 2 2 >.%.%.7 2 e # + + : 2 2 >.%.#.%.%.#.j j j i.#.^ j j : o X ",
"- - S S S 2 > e i.%.%.<.i.%.i.w.i.<.%.^ e : y # + + : : : e e : 2 2 : >.%.%.j e 2 # + + - > : %.#.#.#.#.#.j j N ^ #.^ p j - X X ",
"$ $ j j j S S S %.%.%.y.>.>.%.%.%.%.>.H - % % $ % $ : : 2 b S S S S S >.#.i.S S S : : - % % % S S S P P H S S P S S j - % $ o X ",
"X X : : : #.#.#.%.y.w.w.>.%.w.>.#.%.#.S + + + : e : : : 2 #.%.#.#.#.#.%.<.i.%.>.>.%.>.%.$ + + : 2 2 p j j #.#.P 2 2 : + + + X + ",
"o X : : : ^ #.#.i.i.<.i.>.%.<.>.>.%.#.S # + O : 2 p 2 p j >.%.#.%.#.#.<.>.w.<.<.<.<.%.#.$ + + : : 2 2 j j #.#.~ 2 e - + + + + + ",
"o X $ $ $ 2 j N <.#.<.%.%.#.S N j : - - - - & S ^ P P ^ P >.#.#.S S N %.<.<.%.i.%.%.%.#.: & $ $ $ $ & - & - - - $ $ # o + + # $ ",
"X o + + + - : : #.#.#.#.%.#.p : - + + # : - : #.<.%.%.%.%.>.>.#.j 2 : #.%.<.w.%.>.%.>.>.j : : + + # + $ # + + + X . o + O + $ $ ",
"o o + X + - : : #.%.#.#.%.#.j : - + + # : e : #.%.%.<.<.%.%.#.^ 2 e e #.%.<.%.%.%.%.%.#.j : - + + + # # + + + X X X X + X + $ $ ",
"% $ $ $ $ $ $ $ : - - : - - $ $ $ + + # : : : ^ %.%.%.<.%.%.#.#.P H S #.%.<.#.%.#.S N N : : - o + + - - - 7 2 ; 2 : : - $ $ + # ",
"- % - & % # + # $ $ $ # # # # $ # + + # : : : #.%.w.<.%.<.%.#.#.#.#.#.%.%.<.<.%.#.2 : 2 : : : + + # : : e #.#.#.#.#.H : - $ X X ",
"% $ - - $ # # # $ $ $ $ $ + $ # # + + # : : : ^ %.w.<.%.%.%.q.#.#.#.#.>.<.<.%.#.q.: : : : - : # # # : : : >.#.#.^ #.S : : % X o ",
"$ $ - : - - & - S j j : & - - - & # + + # $ $ j S 7 #.#.#.b S S #.#.#.#.%.#.S j b : : : $ # $ - - - S H H #.#.^ j j j y 2 - . . ",
"% $ : : : : : : #.#.T 2 : : : : : # # # X o X : : : #.#.^ j j j #.#.#.%.%.#.j : > : : : + + + : : : #.#.q.#.#.P : : : m N : X o ",
"% $ : : : : : : #.#.^ 2 : : : : : $ $ # + o X : e : #.#.^ j 2 2 #.#.#.#.#.#.2 : > : : : + + + : : : ^ #.#.#.#.H : 2 : N N : X X ",
"# # : : : j j j S S N e : : S b 7 : : - $ $ $ * - & : : : p 7 2 S S H H P S 2 : : % $ $ $ $ $ N j 7 #.#.#.S S j : : : 7 7 - X o ",
"o X - - : S P P : : : : : : #.^ #.^ ^ S : - : + o + + + # : 2 e 2 j 2 2 e e : : : o o o $ - - P Y P #.#.^ : : : : : : : : % o X ",
"o X - : : S H P : : - : : : #.^ ^ #.^ S - : : + + + + + + : e e e 2 e e p : - : : + o o $ - - P P ^ ^ ^ H : : - : : : - - % o X ",
"X X $ % $ - - : % $ % & - - : : : : : : $ - - $ # # + + + - - - - - - $ $ $ $ $ $ + X o $ % & : : : : : : - - - $ $ $ % % $ o o ",
"o X X o + + + + + X X % $ $ $ $ $ $ $ $ $ $ % % $ % # + + % $ $ $ % % X . X X X X X + X $ $ $ $ $ $ $ $ $ $ % $ + + + o + # # + ",
"= = = = = = 0 0 0 = = 7.7.7.7.i 6.7.i i i i 7.i 7.7.0 0 0 7.7.i 7.b i = = = = = = = = = i 7.7.i 7.7.i 7.7.7.7.7.0 = = = = 0 0 0 "
};
