/* XPM */
static char *e1d32602a3134763a07c7888d3908f05bY2suLBIAWVAU1YM[] = {
/* columns rows colors chars-per-pixel */
"64 64 177 2 ",
"   c #0F1015",
".  c #0D151C",
"X  c #131316",
"o  c #1F1A14",
"O  c #15161B",
"+  c #18171D",
"@  c #17191D",
"#  c #1A1A1E",
"$  c #221C16",
"%  c #241D1B",
"&  c #291F1A",
"*  c #3C1D19",
"=  c #341D19",
"-  c #27221D",
";  c #2C231D",
":  c #34261F",
">  c #3E211D",
",  c #36291F",
"<  c #1D1D22",
"1  c #211F24",
"2  c #281F20",
"3  c #1F2025",
"4  c #222126",
"5  c #2D2422",
"6  c #25252A",
"7  c #28272C",
"8  c #27282D",
"9  c #2A292E",
"0  c #2F2A24",
"q  c #322622",
"w  c #3B2521",
"e  c #342A23",
"r  c #3A2D25",
"t  c #3A2F29",
"y  c #372C28",
"u  c #3D3126",
"i  c #3D3228",
"p  c #2D2D32",
"a  c #302E34",
"s  c #322F38",
"d  c #2E3134",
"f  c #323136",
"g  c #35343A",
"h  c #38373D",
"j  c #3A393E",
"k  c #401F18",
"l  c #43221C",
"z  c #4A251E",
"x  c #462421",
"c  c #4B2621",
"v  c #422F25",
"b  c #4E2822",
"n  c #402F28",
"m  c #532B24",
"M  c #5A2D26",
"N  c #433226",
"B  c #4B3326",
"V  c #423529",
"C  c #4A352B",
"Z  c #46392C",
"A  c #4C3C2E",
"S  c #543127",
"D  c #513629",
"F  c #5C332B",
"G  c #543A2D",
"H  c #5B3D2D",
"J  c #4E3E30",
"K  c #513F31",
"L  c #5C3F31",
"P  c #62352D",
"I  c #65392F",
"U  c #6B3B2F",
"Y  c #6B3C32",
"T  c #613F33",
"R  c #723D35",
"E  c #4D4232",
"W  c #4E443A",
"Q  c #544334",
"!  c #594636",
"~  c #5B4837",
"^  c #51453C",
"/  c #5A4738",
"(  c #5C4939",
")  c #574B3F",
"_  c #634433",
"`  c #6A4534",
"'  c #644A37",
"]  c #6D4933",
"[  c #634E3B",
"{  c #6A4E3B",
"}  c #714135",
"|  c #774638",
" . c #7F4A3B",
".. c #794938",
"X. c #67503D",
"o. c #6B533E",
"O. c #7C543C",
"+. c #77553C",
"@. c #3D3C42",
"#. c #413F44",
"$. c #3F4045",
"%. c #424146",
"&. c #454449",
"*. c #49474C",
"=. c #4A494E",
"-. c #5A4D41",
";. c #4D4B51",
":. c #4E4D52",
">. c #4D4C51",
",. c #514F54",
"<. c #504F55",
"1. c #525156",
"2. c #525255",
"3. c #57565A",
"4. c #55545A",
"5. c #58575C",
"6. c #5B5A5E",
"7. c #6C5440",
"8. c #7E5740",
"9. c #7E5843",
"0. c #5E5D61",
"q. c #605E63",
"w. c #626165",
"e. c #636265",
"r. c #66656A",
"t. c #69676C",
"y. c #6B6A6D",
"u. c #6E6D71",
"i. c #716F74",
"p. c #727275",
"a. c #757479",
"s. c #79777C",
"d. c #7B7B7D",
"f. c #844C3A",
"g. c #855B43",
"h. c #8A5D45",
"j. c #8C6047",
"k. c #8E644A",
"l. c #916347",
"z. c #92654A",
"x. c #956B4E",
"c. c #9A6B4E",
"v. c #9B6D51",
"b. c #9D7154",
"n. c #A27455",
"m. c #A4795B",
"M. c #A97D5D",
"N. c #A57658",
"B. c #BB855F",
"V. c #AD8261",
"C. c #B18464",
"Z. c #B58966",
"A. c #B68A69",
"S. c #B98D6B",
"D. c #B98B67",
"F. c #BD916E",
"G. c #C48A62",
"H. c #CB976E",
"J. c #CC996E",
"K. c #C0946F",
"L. c #C29672",
"P. c #C59A74",
"I. c #C99D77",
"U. c #CC9E7A",
"Y. c #CCA17A",
"T. c #D3A176",
"R. c #D2A37B",
"E. c #DBA97B",
"W. c #7D7D81",
"Q. c #807E83",
"!. c #818184",
"~. c #858488",
"^. c #89898B",
"/. c #88868B",
"(. c #8E8D91",
"). c #8F9092",
"_. c #939393",
/* pixels */
"u r r r r V Z Z J J K Q K Q Q Q J i i u r r r K Q Q Q Q Q Q Q K K Q Q Q Q K V r r r u u r r r E Q Q Q Q Q Q Q Q A A A r u r r r ",
"u r Q Q E A Z A ! ! ! ! ! ! X.[ [ Q ! Q u r r u u u i i i Q Q Q ! ! ! ! ! Q ! ! Q ! ! Q i r r r e r ! ! ( o.o.[ Q Q K A A Z r r ",
"u u K Q Q A V Z ! ! ! ( ~ ! X.X.[ ! ! Q u r r u i i i i V Q Q Q / ! ! ! ! ! ! Q Q ! ! ! i u r u r u ! ! ! o.o.[ Q K J A A Z r u ",
"u u Q Q Q A V Z ! ! ! ~ ~ / X.X.[ ! ! Q u u u i o o $ o $ ; ; ; ; ; ; ; ; ; ; ; ; : ! ! V u r u r r ! ~ ~ o.o.[ Q K J A A Z r r ",
"i u Q Q Q Q Q ! / ~ ~ ( ~ ~ ~ / Q r r r i i u Q 4 < < 4 1 < 1 3 3 6 < 4 < 4 < < 1 X ! ! Q Q Q i u u V i i i i i r u i J A A r r ",
"i u ! ! Q ! ! ! ( ( ( ( ~ ~ ~ / Q i i i i V i Q 6 4 1 4 < < 4 4 4 7 < 4 < 7 4 4 3 + ! ! Q ! Q i i i V V V V V V i i V Q J A r r ",
"i r ! ! ! ! ~ ! ( ( ( ( ( ( / ! Q i i i V < 3 < @.j =.;.2.;.0.5.2.w.4.6.2.6.5.*.=.@.4 < Q ! ! V i i V Z V V V V V i V K J A r r ",
"i u ! ! ! [ [ X.o.X.X.( ( ( Z Z Z Z Z A Q 3 6 3 @.@.@.*.;.&.5.2.:.5.,.4.;.4.2.*.=.*.4 6 ! ! ! V i V Q Q ! ! ! Q Q Q A i i i r r ",
"i i ! ! ! X.o.o.7.o.o.[ ( ( V i V A i 4 4 @.*.@.&.*.:.1.y.0.y.r.q.a.e.p.r.i.t.t.u.r.4.2.7 7 ! i i V ! ! / / / ! ! ! Q i u u r u ",
"i i ! ~ ! [ o.o.o.o.o.[ ( ( V i V A Z 8 8 ;.:.%.,.:.5.0.a.u.s.p.u.!.i.!.p.W.p.a.W.p.e.e.9 p ! i V V ! / ~ ~ ~ / ! ! Q i u u i u ",
"V i Z Z A A A A K K A A J A V V $ 9 < &.*.=.=.=.2.=.0.t.p.t.d.p.u.d.u.d.y.d.a.p.s.a.p.p.*.,.7 7 4 Q [ X.o.o.o.X./ / ( ' ( ! A A ",
"i i V V V Z Z V A A Z A A Z V V $ <   g h @.#.#.@.@.2.4.r.5.t.q.q.y.6.t.5.r.6.0.e.5.0.e.j %.< < < ! o.o.o.o.o.[ ~ ~ ( o.o.[ A A ",
"i i V V V V V V A A A A Z Z V V $ 9 # :.:.2.5.2.5.1.y.p.W.p.(.~./.(.a.^.a.~.p.d.!.d.W.d.2.4.p p 7 ~ o.o.o.o.o.[ ~ ~ ( o.o.[ J A ",
"i u Q Q Q ! ! ! [ o.X.X.X.[ / ! ; 9 < ;.:.,.1.:.1.,.u.u.a.y.s.p.u.!.a.~.i.W.p.a.d.a.W.W.2.2.7 9 7 o.o.o.o.o.o.o.o.o.o.o.o.[ Q J ",
"i u ! ! ! ~ ~ / o.o.o.7.o.7.( ~ ; < X j j @.@.h &.@.5.5.e.5.q.0.5.r.0.u.5.r.0.6.r.0.r.e.#.@.< < < o.7.o.o.o.o.o.o.o.o.o.o.[ J A ",
"i u / / ! ~ / / o.o.o.o.o.o.' ( ; 6 O #.%.*.*.@.=.&.0.q.t.0.u.r.r.p.r.p.e.u.r.r.u.r.u.y.*.;.4 7 4 o.7.o.o.o.7.o.o.o.o.o.o.[ J A ",
"A A ~ ! ! [ o.o.o.7.o.o.o.o.o.o.e 7 O &.*.*.=.&.:.=.r.u.p.u.a.p.p.W.u.W.p.W.a.p.a.p.a.a.*.;.7 7 4 o.7.o.o.( ( [ o.o.X.( ~ ! A A ",
"E A ! / ! o.7.o.7.7.o.o.o.o.o.o.e 4 O @.@.@.@.@.j j h g *.&.*.&.%.:.%.=.&.=.*.%.*.*.=.=.%.*.%.%.$.< < o.o.~ / ( o.o.o.! ! Q A A ",
"J A / / ! o.7.7.o.7.o.o.7.o.o.o., 4 O j @.@.@.j j g f g &.@.*.#.%.;.#.;.%.=.%.%.&.%.=.=.@.$.@.#.@.< < o.o.! ! ( o.o.[ ! ! Q A A ",
"J A [ X.[ o.o.o.( ( ( o.o.o.7.o.r 9 4 ;.:.=.:.*.p a @.@.q.4.u.r.r.!.p.!.a.Q.a.i.d.p.s.W.p.p.r.e.q.9 7 7.o.X.X.X.o.o.{ [ [ ! V i ",
"Q A X.{ [ o.7.o./ ! ! o.o.o.7.7., 7 < =.=.=.:.*.p p j j 5.2.t.e.q.Q.y.W.u.d.p.y.d.u.a.a.u.u.e.e.0.9 7 o.7.o.o.7.o.o.o.X.X.( u r ",
"Q J [ X.[ o.o.o.! ! ! 7.o.o.7.o.r 4 O %.%.%.*.#.7 6 6 6 7 7 8 7 7 a 9 p p p p 9 f p p p p p p p p < < o.o.o.o.o.o.o.o.o.X.( u u ",
"J A ( ( ( o.o.o.X.X.X.o.o.7.o.o.e < X h j j @.j 4 < < < < 3 < < 4 6 4 7 6 7 4 6 7 6 7 7 4 7 7 4 4 < < 7.7.o.o.o.o.o.[ ! ! Q u u ",
"J A ~ ~ ~ X.o.o.7.o.o.o.7.o.7.7.e 7 O *.*.=.=.*.*.*.7 7 b.v.v.x.k.7 < x.k.v.k.z.c.x.9 7 k.k.7 7 4 ! o.o.o.o.o.o.o.o.[ ! Q A r u ",
"Q J / / / X.o.o.o.o.o.o.o.7.o.o.e <   g j h @.h h g < < l.h.k.h.9.< @ h.8.j.g.8.h.O.< < g.h.# < # ! o.o.o.o.o.o.7.o.[ Q Q A i u ",
"V V ! / / X.o.o.o.o.o.o.o.7.' ( ; < O j @.j @.j @.j < < c.j.v.l.h.4 < z.h.l.h.h.l.c.4 4 g.l.< 4 4 Z A A K K E A V Z V V V V A A ",
"i i ! / / [ o.o.7.7.7.7.o.o.( ( ; < O < < j %.j 4.4.7 7 S.V.F.Z.C.< @ F.A.F.D.A.F.L.6 3 M.V.< 4 3 V V Z A A A A i i i i i i A A ",
"i i ! ! / [ o.o.7.o.o.o.o.o.( / ; 7 < 6 6 *.=.*.t.r.f p L.Z.I.L.S.7 4 Y.L.I.F.L.I.Y.9 7 Z.F.7 9 7 V V Z A A A Z i i i i i V A A ",
"i i Z A A ! ~ ~ 7.o.o.' 9 9 9 7 2 m c b b 6 8 8 g g f f R.K.Y.P.P.Y.P.R.P.Y.L.L.Y.Y.Y.Y.Z.F.6 9 8 Q ' [ [ ! ! ! Q Q A i i V A J ",
"i i V V V Q ! ! 7.o.o.( 7 6 7 6 4 m c b m 7 7 7 g f d a U.D.U.P.P.U.L.Y.P.U.P.P.I.P.I.U.Z.D.7 9 7 ~ o.7.o./ ~ ( ~ / Q V V V A J ",
"i i i i i Q ! ! o.o.7 4 m b Y U F Y P Y Y I Y H r r r r z.h.M.b.b.S.C.F.C.F.D.Z.D.V.N.n.r e i ! ! / o.o.o.( ~ / ~ ~ Q V V V A A ",
"Q Q V i i V V V A A < # x z F F F P F F P F F F q q q 5 j.g.n.x.c.C.M.Z.m.Z.V.M.C.m.v.v.q e ~ X.o.o.7.7.7.o.o.o.o.X.[ ! Q A V V ",
"Q Q i i i i V i Z Z < # l > f.| ..f. .f.f.|  .} 5 5 5 5 G.B.T.H.J.E.T.E.T.E.T.T.T.H.J.H.i t ' o.o.o.o.7.o.o.o.o.o.o.[ ! ! A i i ",
"Q Q V i i V V V A Z # # z l l l = < # < < * * * l > > l 5 - q ; - q ; ; - 5 - - - - 5 5 < < [ o.o.7.o.o.7.7.o.o.o.o.[ ! ! A i i ",
"Q Q i i i K Q Q ! Q 4 < m z l c w 4 < 1 4 x l x c c b b e q y e e t e r q q q q q q q q < 4 / o.7.o.( ( ' 7.o.o.o.o.o.[ [ ~ V V ",
"Q Q i i i Q ! ! / ! < < m m < < @ #.a #.%.s g p ; ; c c F m S m m P F P F x l l l = A G N C 4 7 < o./ ! ! o.o.o.o.o.o.o.o.( V V ",
"Q Q i i i Q ! ! / ! @ # z l O # X g 9 f g 9 p 9 - ; k l b z b c c m z m b * * * * = r N e r < < # o.( ( ~ o.o.o.o.o.o.o.o.( V V ",
"V V Q Q Q [ X.[ / ~ 4 4 P M 4 4 < *.@.y.y.r.y.e.h g 4 6 r e S m m Y F Y I } Y Y ` ` A J 9 p [ 7.o.o.o.o.X.o.o.X.( ( ' o.X.[ J A ",
"i u / ! ! [ o.o.( ~ 1 1 M M 4 4 # %.f y.u.e.r.q.f p 4 4 q e m m m Y F Y P R I Y Y T J C 8 9 o.7.o.o.o.o.o.o.o.X./ / ( o.X.[ Q Q ",
"i u ! ! ! X.o.o./ / F P @ < n r e 1 < 4 4 < 3 3 @.@.@.@.< < < < < < < < < < < < 3 < < < < < o.o.o.o.7.o.o.o.o.X.~ / ( o.o.[ Q Q ",
"i r [ [ [ o.o.o.X.[ c m # # : q 5 # O # # # < @ f p f f < < < < < 1 # 1 < 4 < < < < < < < < o.( ( ( o.o.o.o.o.7.[ [ [ X.o.[ K J ",
"i u o.o.o.o.7.o.# O P P 7 7 ' { _ O.+.~ _ 6 7 7 =.&.*.=.0.0.r.r.e.^.!._.^.).^.*.:.;.9 p ! ( + O O ( o.o.o.o.o.o.o.o.o.X.o.[ Q Q ",
"i u o.o.o.o.7.o.9 4 M F 6 6 _ ! G +.] ! ! 4 7 7 %.@.&.%.:.*.:.*.;.u.e.u.e.p.e.h =.=.9 7 K ! 8 9 4 ( o.o.o.7.o.o.o.o.o.o.o.[ Q J ",
"A A X.o.X.' ( ' < O l l @ # N N w T H v N # < # 9 p f f g f g p d 4.=.2.*.,.;.p g f < # : r # < + [ o.o.o.[ ' [ o.o.o.' ' ! V V ",
"Q E [ [ [ ~ / ~ < O > z # @ r N q D C ; 5 # # @ 7 7 f g @.f =.#.*.4.*.5.=.1.=.p j g < < B C < < # o.o.o.X.( ( ( 7.o.X.( ( ! i i ",
"Q Q [ [ [ ~ ! / 7 4 m m 4 3 G L C _ ! r r 6 7 6 f f $.%.=.%.0.4.4.y.5.u.0.t.0.h &.@.7 7 ! ` 7 7 3 o.o.o.o.( ( ( o.o.X./ ( Q i i ",
"A A ( ( ( < < . z l z z < < D H N _ H G G % - % 5 5 e e e q r : : ] D ] _ ; ; ; q : 1 < C H q q 5 < < [ [ [ [ [ [ [ ( Q J A i i ",
"i i ! ! ! # # . l * * l # + B C r D D v B % % % - - ; ; q ; e ; q H B H D - - - ; 5 < # N B - 5 - # < ( ( o.o.[ ~ ~ ! V V V i V ",
"i i ! ! ! # # O l k l l @ + B B r H D % % $ % % 5 & q q C r N r r _ S % % : ; ; e r < # N D 6 6 4 #.=.# < o.o.X.~ / Q V V V V i ",
"i i A A A 7 7 < b m m m 7 4 ` ` ! ..` q q ; q ; e e C C ' G ! G H O._ 5 - Z V i C J 7 7 H ` f f p 5.0.7 7 Q Q Q A A Z V V V A A ",
"i i V V V Q ! ! < < l l < < N v r C N ; ; e V r 4 < h j @.@.j h f - & @.@.%.j p g f 4 < e r 3 7 < g h j @.4 4 V i i u V V V A A ",
"i i V i V Q ! ! # O * * # @ r r w N v - - q e q < # p f g f f p p % % h f h f 9 p p < # q r 4 4 < f g f g O # i i u u V i V A A ",
"J A A A A A A A < # l x 4 < N C r N r q e r r q < < f f @.h j g f - % @.g j f f f g 3 < e r 4 4 < f h j @.# < ~ ! ! ! J A A V V ",
"Q J Q K J Z V Z A A 7 7 7 7 7 7 6 Z V V Z 7 7 7 q q q q 7 7 7 6 4 7 4 q q q q q e e 7 7 4 7 7 7 6 #.%.%.*.e.p.< 7 , [ ! Q A i i ",
"J A Q Q A Z Z Z A A 4 4 4 4 4 4 2 V r V V 4 4 4 q q q : 4 4 6 4 4 6 4 5 5 q q 5 q q 4 4 4 7 6 4 6 j #.%.#.0.r.< 6 , [ ! ! J u u ",
"A A ! ! Q Q Q Q [ ( ( ! Q Q Q Q ; < O # < N N i v N r r # # r [ o.o.o.< < C N N C N @ # A Z A E K < < h g g j @ < ; ( ~ ~ Q r r ",
"J A ! ! ! ! ! ! o.o.{ ~ ! ! ! ! ; < # # < r n r r r e r < # , ( o.o.o.< @ C v N N v < + V V V ! ! # < g g p j @ # ; ! ' ' ! i i ",
"J A ! ! ! ! ! ! o.o.X.~ ! ! ! ! ; 7 1 e r i V V V V 6 5 X.( ~ ( o.o.o.7 4 V V V C N 6 4 V V V ! ! ! X.7 7 4 7 [ ! ! ! ' ' ! i i ",
"Z Z ! ! ! ( ( ( [ [ ' / ! ! [ ( ; # O & ; ; ; ; q ; + # ! / ~ ~ [ [ [ # O - ; ; ; ; < # A A A ( ( ' { < < # < ( / ! ! ( ~ ! i i ",
"i u Q Q ! [ [ [ ! ! ! ! ! ! o.X.e 7 4 r i A Q K K A 5 q Z ! ~ / ~ ~ ! 7 6 V r Q ! G ! K 7 7 Q [ { X.X.o.[ ! ! ! ! ! ! ! ! A i u ",
"i u Q ! ! [ [ [ ! ! Q ! ! ! o.X., 6 4 r r C C V N V - 5 V ! / / / ~ ! 4 4 e r A G A G A 4 6 Q [ [ X.o.X.[ ! ! ! ! ! ! Q Q J i u ",
"u u A J A Q Q ! J A J K Q Q ! ! ; < O % 2 4 5 5 2 4 # # V Q Q Q Q Q Q + + % % 5 5 5 5 5 < < J ! ! ! ! ! ! Q Q Q A A A A A A V i ",
"i u i i V V V V V i i J A A A A & < # # < < < < < # # # V J A A A A A < # < # < < < < < # < A J A A A A A A A A V V V N V Z Z V ",
"W W W W W W ^ ^ ^ W W -.-.-.-.) 0 4 < 4 4 4 4 4 4 1 1 4 ^ -.-.-.-.-.) 7 3 4 < 4 4 4 6 4 1 4 -.) -.-.) -.-.-.-.) W W W W W ^ ^ ^ "
};
