/* XPM */
static char *_86c9e8c471c4917f649cab27d6885f9HVEPs7fgl4ANqYab[] = {
/* columns rows colors chars-per-pixel */
"64 64 2 1 ",
"  c #1E1E1E",
". c #323232",
/* pixels */
"                                                                ",
" ............... ............... ............... ...............",
" ............... ............... ............... ...............",
" ............... ............... ............... ...............",
" ............... ............... ............... ...............",
" ............... ............... ............... ...............",
" ............... ............... ............... ...............",
" ............... ............... ............... ...............",
" ............... ............... ............... ...............",
" ............... ............... ............... ...............",
" ............... ............... ............... ...............",
" ............... ............... ............... ...............",
" ............... ............... ............... ...............",
" ............... ............... ............... ...............",
" ............... ............... ............... ...............",
" ............... ............... ............... ...............",
"                                                                ",
"................................................................",
"................................................................",
"................................................................",
"................................................................",
"................................................................",
"................................................................",
"................................................................",
"................................................................",
"................................................................",
"................................................................",
"................................................................",
"................................................................",
"................................................................",
"................................................................",
"................................................................",
"                                                                ",
" ............... ............... ............... ...............",
" ............... ............... ............... ...............",
" ............... ............... ............... ...............",
" ............... ............... ............... ...............",
" ............... ............... ............... ...............",
" ............... ............... ............... ...............",
" ............... ............... ............... ...............",
" ............... ............... ............... ...............",
" ............... ............... ............... ...............",
" ............... ............... ............... ...............",
" ............... ............... ............... ...............",
" ............... ............... ............... ...............",
" ............... ............... ............... ...............",
" ............... ............... ............... ...............",
" ............... ............... ............... ...............",
"                                                                ",
"................................................................",
"................................................................",
"................................................................",
"................................................................",
"................................................................",
"................................................................",
"................................................................",
"................................................................",
"................................................................",
"................................................................",
"................................................................",
"................................................................",
"................................................................",
"................................................................",
"................................................................"
};
